<svg viewBox="0 0 150 150" xmlns="http://www.w3.org/2000/svg" xmlns:xlink="http://www.w3.org/1999/xlink">
    <style>
        #theHex { stroke: #522814; stroke-width: 5px; }
        #snout, #ears, #wiskers, #eyes { fill: #522814; }
        .tongue { fill: hsla(0, 100%, 50%, .5); }
    </style>
    <defs>
        <symbol id="thecat" viewBox="0 0 120 120">
            <path id="snout" d="M60.355,68.971c-6.096,4.684-10.809,5.317-14.413,1.48c-1.275-1.358-2.395-4.752-1.638-5.77
                c2.121-2.854,3.688-0.457,5.209,1.514c2.111,2.736,4.582,1.498,6.422-0.305c1.678-1.644,3.942-3.74,0.751-6.146
                c-2.091-1.576-3.138-4.14-0.671-5.119c2.697-1.071,5.708-1.523,9.052,0.185c1.635,1.414,0.174,3.384-0.792,4.443
                c-2.604,2.858-1.254,5.079,0.871,6.749c2.289,1.797,4.898,2.686,7.205-0.719c0.805-1.188,3.344-2.668,4.506-2.141
                c1.494,1.119,0.793,3.934,0.064,5.301C73.988,73.949,67.191,74.123,60.355,68.971z" />
            <g id="ears">
                <path id="l_ear" d="M0.549,22.902C0.359,11.312,5.463,4.237,16.305,1.164c1.019-0.288,2.954-0.062,3.52,0.778
                    c0.969,2.364-1.785,4.089-2.219,4.324C9.243,10.795,5.687,17.926,6.16,27.271c-0.148,3.132-1.513,5.434-3.065,5.434
                    c-1.519,0-2.132-2.443-2.44-3.834C0.231,26.969,0.549,24.9,0.549,22.902z" />
                <path id="r_ear" d="M119.779,28.871c-0.309,1.391-0.922,3.834-2.441,3.834c-1.551,0-2.916-2.302-3.064-5.434
                    c0.473-9.345-3.083-16.476-11.445-21.005c-0.435-0.235-3.188-1.96-2.22-4.324c0.566-0.84,2.501-1.066,3.521-0.778
                    c10.842,3.073,15.945,10.148,15.756,21.738C119.885,24.9,120.203,26.969,119.779,28.871z" />
            </g>
        </symbol>

        <g id="wiskers">
            <symbol id="_lb_wisker" viewBox="0 0 120 120">
                <path id="lb_wisker" d="M28.962,72.202c0.875,2.007-13.469,10.183-14.186,8.491C12.966,77.405,28.079,70.452,28.962,72.202z" />
            </symbol>
            <symbol id="_lt_wisker" viewBox="0 0 120 120">
                <path id="lt_wisker" d="M25.74,66.219c0.455,1.896-14.707,7.321-15.318,4.727C9.845,68.933,24.709,63.314,25.74,66.219z" />
            </symbol>
            <symbol id="_rb_wisker" viewBox="0 0 120 120">
                <path id="rb_wisker" d="M106.629,80.693c-0.716,1.691-15.061-6.484-14.186-8.491C93.327,70.452,108.439,77.405,106.629,80.693z" />
            </symbol>
            <symbol id="_rt_wisker" viewBox="0 0 120 120">
                <path id="rt_wisker" d="M110.984,70.945c-0.611,2.595-15.773-2.83-15.318-4.727C96.697,63.314,111.562,68.933,110.984,70.945z" />
            </symbol>
        </g>

        <symbol id="eyes" viewBox="0 0 120 120">
            <circle id="R_eye" r="7" cx="91" cy="45" />
            <use xlink:href="#R_eye" transform="translate(-60.5,0)" />
        </symbol>

        <g id="theHex">
            <path id="hx" d="M66.34,10 
                Q75,5 83.66,10 
                L126.96,35 
                Q135.62,40 135.62,50
                L135.62,100 
                Q135.62,110 126.96,115
                L83.66,140 
                Q75,145 66.34,140
                L23,115 Q14.38,110 14.38,100
                L14.38,50 
                Q14.38,40 23,35Z"></path>
        </g>
    </defs>

    <use xlink:href="#theHex" class="theHex" fill="#ffca5e" />
    <use xlink:href="#_lb_wisker" width="110" x="20" y="15" />
    <use xlink:href="#_lt_wisker" width="110" x="20" y="15" />
    <use xlink:href="#_rb_wisker" width="110" x="20" y="15" />
    <use xlink:href="#_rt_wisker" width="110" x="20" y="15" />
    <use xlink:href="#eyes" width="110" x="20" y="15" />
    <path class="tongue" d="M75 97H65A5,10 0 0 0 85,97z" />
    <use xlink:href="#thecat" width="110" x="20" y="15" />
</svg>
